<svg width="1383" height="736" viewBox="0 0 1383 736" fill="none" xmlns="http://www.w3.org/2000/svg">
<path d="M1282.16 306.492L1277.57 302L1273 306.506L1277.59 310.997L1282.16 306.492Z" fill="#F7BD20" fill-opacity="0.5"/>
<path d="M152.415 231.642L152 232.015L152.767 232.905L154.157 234.478L154.53 234.913L157.039 237.791L157.972 238.867L158.657 239.654L160.005 241.186L160.917 242.221L161.207 242.552L161.456 242.842L162.016 242.676L168.134 240.751L170.042 240.151L171.929 239.55L171.68 238.267L171.452 237.149L170.705 233.36L170.311 231.394L169.979 229.717L169.876 229.241L167.844 218.911L167.657 218L158.781 225.929L157.309 227.254L154.613 229.676L153.576 230.607L152.415 231.642ZM157.226 234.292L158.615 234.83L160.523 235.555L162.597 236.341L161.373 241.33L160.44 240.254L159.652 239.343L158.885 238.474L157.558 236.962L156.666 235.948L155.546 234.665L154.177 233.112L156.417 233.961L157.226 234.292ZM162.286 241.413L162.742 239.55L163.447 236.673L163.883 236.838L165.396 237.418L166.496 237.832L168.051 238.432L170 239.178L169.337 239.385L168.196 239.736L166.869 240.151L164.982 240.751L163.509 241.206L162.576 241.496L162.244 241.6L162.286 241.413ZM168.424 226.508L168.507 226.943L168.839 228.62L169.233 230.586L169.585 232.325L169.648 232.677L170.042 234.706L170.125 235.182L170.456 236.859L170.788 238.515L169.772 238.122L168.507 237.646L166.703 236.962L163.696 235.803L164.36 233.133L164.816 231.311L165.085 230.193L165.459 228.703L167.367 220.981L168.424 226.508ZM165.065 226.322L164.712 227.771L163.862 231.187L163.468 232.76L163.115 234.189L162.804 235.472L161.705 235.058L160.44 234.582L159.3 234.147L156.065 232.926L154.157 232.201L153.452 231.932L155.836 229.8L157.081 228.682L158.221 227.668L159.092 226.881L166.558 220.215L165.065 226.322Z" fill="#F7BD20" fill-opacity="0.5"/>
<path d="M391.415 688.642L391 689.015L391.767 689.905L393.157 691.478L393.53 691.913L396.039 694.791L396.972 695.867L397.657 696.654L399.005 698.186L399.917 699.221L400.207 699.552L400.456 699.842L401.016 699.676L407.134 697.751L409.042 697.151L410.929 696.55L410.68 695.267L410.452 694.149L409.705 690.36L409.311 688.394L408.979 686.717L408.876 686.241L406.844 675.911L406.657 675L397.781 682.929L396.309 684.254L393.613 686.676L392.576 687.607L391.415 688.642ZM396.226 691.292L397.615 691.83L399.523 692.555L401.597 693.341L400.373 698.33L399.44 697.254L398.652 696.343L397.885 695.474L396.558 693.962L395.666 692.948L394.546 691.665L393.177 690.112L395.417 690.961L396.226 691.292ZM401.286 698.413L401.742 696.55L402.447 693.673L402.883 693.838L404.396 694.418L405.496 694.832L407.051 695.432L409 696.178L408.337 696.385L407.196 696.736L405.869 697.151L403.982 697.751L402.509 698.206L401.576 698.496L401.244 698.6L401.286 698.413ZM407.424 683.508L407.507 683.943L407.839 685.62L408.233 687.586L408.585 689.325L408.648 689.677L409.042 691.706L409.125 692.182L409.456 693.859L409.788 695.515L408.772 695.122L407.507 694.646L405.703 693.962L402.696 692.803L403.36 690.133L403.816 688.311L404.085 687.193L404.459 685.703L406.367 677.981L407.424 683.508ZM404.065 683.322L403.712 684.771L402.862 688.187L402.468 689.76L402.115 691.189L401.804 692.472L400.705 692.058L399.44 691.582L398.3 691.147L395.065 689.926L393.157 689.201L392.452 688.932L394.836 686.8L396.081 685.682L397.221 684.668L398.092 683.881L405.558 677.215L404.065 683.322Z" fill="#F7BD20" fill-opacity="0.5"/>
<path d="M1126.41 40.6422L1126 41.0149L1126.77 41.905L1128.16 43.4783L1128.53 43.9131L1131.04 46.7905L1131.97 47.867L1132.66 48.6537L1134 50.1856L1134.92 51.2206L1135.21 51.5519L1135.46 51.8417L1136.02 51.6761L1142.13 49.7509L1144.04 49.1505L1145.93 48.5502L1145.68 47.2667L1145.45 46.1488L1144.71 42.3604L1144.31 40.3938L1143.98 38.717L1143.88 38.2409L1141.84 27.9109L1141.66 27L1132.78 34.9286L1131.31 36.2535L1128.61 38.6756L1127.58 39.6072L1126.41 40.6422ZM1131.23 43.292L1132.62 43.8302L1134.52 44.5548L1136.6 45.3414L1135.37 50.3305L1134.44 49.254L1133.65 48.3432L1132.88 47.4737L1131.56 45.9625L1130.67 44.9481L1129.55 43.6646L1128.18 42.112L1130.42 42.9608L1131.23 43.292ZM1136.29 50.4133L1136.74 48.5502L1137.45 45.6727L1137.88 45.8383L1139.4 46.4179L1140.5 46.832L1142.05 47.4323L1144 48.1775L1143.34 48.3846L1142.2 48.7365L1140.87 49.1505L1138.98 49.7509L1137.51 50.2063L1136.58 50.4961L1136.24 50.5996L1136.29 50.4133ZM1142.42 35.5083L1142.51 35.943L1142.84 37.6198L1143.23 39.5865L1143.59 41.3254L1143.65 41.6773L1144.04 43.706L1144.12 44.1822L1144.46 45.859L1144.79 47.5151L1143.77 47.1218L1142.51 46.6456L1140.7 45.9625L1137.7 44.8032L1138.36 42.1327L1138.82 40.311L1139.09 39.1931L1139.46 37.7026L1141.37 29.981L1142.42 35.5083ZM1139.06 35.322L1138.71 36.7711L1137.86 40.1868L1137.47 41.7601L1137.12 43.1885L1136.8 44.472L1135.71 44.058L1134.44 43.5818L1133.3 43.1471L1130.06 41.9257L1128.16 41.2012L1127.45 40.9321L1129.84 38.7998L1131.08 37.6819L1132.22 36.6676L1133.09 35.8809L1140.56 29.2151L1139.06 35.322Z" fill="#F7BD20" fill-opacity="0.5"/>
<path d="M84.6531 388.861V386.105H23.2706H23V388.861H23.2706H84.6531Z" fill="#FFE4E1" fill-opacity="0.2"/>
<path d="M60.1868 380.756V378H23.2706H23V380.756H23.2706H60.1868Z" fill="#FFE4E1" fill-opacity="0.2"/>
<path d="M39.9966 397.02V394.21H23.2706H23V397.02H23.2706H39.9966Z" fill="#FFE4E1" fill-opacity="0.2"/>
<path d="M206.656 418.538L205.314 418.907L206.217 419.785L207.373 420.916L208.136 421.655L208.275 421.493L212.393 417.268L212.138 417.014L211.953 417.06L211.676 417.152L206.656 418.538Z" fill="#FFE4E1" fill-opacity="0.2"/>
<path d="M197.357 424.426L197.797 424.865L199.277 426.319L200.018 427.035L201.243 428.213L201.498 427.959L204.436 424.934L205.06 424.334L204.921 424.195L203.695 422.994L202.747 422.094L201.151 420.523L200.711 420.985L199.647 422.071L197.357 424.426Z" fill="#FFE4E1" fill-opacity="0.2"/>
<path d="M192.014 430.383L191.436 430.984L192.476 432L193.772 433.247L194.489 433.962L194.859 434.309L197.565 431.515L198.167 430.891L197.75 430.476L196.686 429.437L196.108 428.882L194.766 427.566L194.489 427.843L193.124 429.252L192.014 430.383Z" fill="#FFE4E1" fill-opacity="0.2"/>
<path d="M189.423 439.389L190.719 438.05L191.783 436.964L191.32 436.549L190.279 435.51L188.845 434.124L188.822 434.147L186 437.057L188.915 439.874V439.897L189.423 439.389Z" fill="#FFE4E1" fill-opacity="0.2"/>
<path d="M215.335 405L210.593 409.866L215.467 414.599L220.209 409.734L215.335 405Z" fill="#FFE4E1" fill-opacity="0.2"/>
<path d="M205.315 418.907L206.657 418.538L211.676 417.152L212.139 417.014L208.021 412.996L203.742 417.383L204.621 418.237L205.315 418.907Z" fill="#FFE4E1" fill-opacity="0.2"/>
<path d="M1026.66 256.538L1025.31 256.907L1026.22 257.785L1027.37 258.916L1028.14 259.655L1028.28 259.493L1032.39 255.268L1032.14 255.014L1031.95 255.06L1031.68 255.152L1026.66 256.538Z" fill="#FFE4E1" fill-opacity="0.2"/>
<path d="M1017.36 262.426L1017.8 262.865L1019.28 264.319L1020.02 265.035L1021.24 266.213L1021.5 265.959L1024.44 262.934L1025.06 262.334L1024.92 262.195L1023.7 260.994L1022.75 260.094L1021.15 258.523L1020.71 258.985L1019.65 260.071L1017.36 262.426Z" fill="#FFE4E1" fill-opacity="0.2"/>
<path d="M1012.01 268.383L1011.44 268.984L1012.48 270L1013.77 271.247L1014.49 271.962L1014.86 272.309L1017.57 269.515L1018.17 268.891L1017.75 268.476L1016.69 267.437L1016.11 266.882L1014.77 265.566L1014.49 265.843L1013.12 267.252L1012.01 268.383Z" fill="#FFE4E1" fill-opacity="0.2"/>
<path d="M1009.42 277.389L1010.72 276.05L1011.78 274.964L1011.32 274.549L1010.28 273.51L1008.85 272.124L1008.82 272.147L1006 275.057L1008.91 277.874V277.897L1009.42 277.389Z" fill="#FFE4E1" fill-opacity="0.2"/>
<path d="M1035.33 243L1030.59 247.866L1035.47 252.599L1040.21 247.734L1035.33 243Z" fill="#FFE4E1" fill-opacity="0.2"/>
<path d="M1025.32 256.907L1026.66 256.538L1031.68 255.152L1032.14 255.014L1028.02 250.996L1023.74 255.383L1024.62 256.237L1025.32 256.907Z" fill="#FFE4E1" fill-opacity="0.2"/>
<path d="M5.14058 223L0 228.249L5.1566 233.482L10.2972 228.233L5.14058 223Z" fill="#FFE4E1" fill-opacity="0.2"/>
<path d="M1327.14 52L1322 57.2491L1327.16 62.4818L1332.3 57.2327L1327.14 52Z" fill="#FFE4E1" fill-opacity="0.2"/>
<path d="M45.4946 552L42 555.568L45.5054 559.126L49 555.557L45.4946 552Z" fill="#FFE4E1" fill-opacity="0.2"/>
<path d="M996.84 516.858L997.3 518.527L998.391 517.405L999.799 515.966L1000.72 515.017L1000.52 514.844L995.26 509.723L994.944 510.039L995.002 510.269L995.117 510.614L996.84 516.858Z" fill="#FFE4E1" fill-opacity="0.2"/>
<path d="M1004.16 528.425L1004.71 527.878L1006.52 526.037L1007.41 525.116L1008.87 523.591L1008.56 523.275L1004.8 519.62L1004.05 518.844L1003.88 519.016L1002.38 520.541L1001.26 521.721L999.31 523.706L999.884 524.253L1001.23 525.577L1004.16 528.425Z" fill="#FFE4E1" fill-opacity="0.2"/>
<path d="M1011.57 535.072L1012.32 535.791L1013.59 534.496L1015.14 532.885L1016.03 531.993L1016.46 531.533L1012.98 528.166L1012.21 527.418L1011.69 527.936L1010.4 529.26L1009.71 529.979L1008.07 531.648L1008.41 531.993L1010.17 533.691L1011.57 535.072Z" fill="#FFE4E1" fill-opacity="0.2"/>
<path d="M1022.78 538.294L1021.11 536.683L1019.76 535.36L1019.24 535.935L1017.95 537.23L1016.23 539.014L1016.26 539.043L1019.88 542.553L1023.38 538.927L1023.41 538.927L1022.78 538.294Z" fill="#FFE4E1" fill-opacity="0.2"/>
<path d="M979.999 506.063L986.052 511.962L991.94 505.899L985.888 500L979.999 506.063Z" fill="#FFE4E1" fill-opacity="0.2"/>
<path d="M997.299 518.527L996.84 516.858L995.116 510.614L994.944 510.039L989.946 515.161L995.404 520.484L996.466 519.39L997.299 518.527Z" fill="#FFE4E1" fill-opacity="0.2"/>
<path d="M37 96.2494C37 96.2064 37 96.1204 37 96.0773C37 95.4319 36.8707 94.8295 36.6552 94.3132C36.3966 93.5817 35.9655 92.9363 35.4052 92.4199C35.2759 92.2908 35.1466 92.1618 34.9741 92.0327C34.8017 91.9036 34.5862 91.7745 34.4138 91.6454C33.681 91.2151 32.8621 91 32 91C30.8793 91 29.8448 91.3873 29.0259 92.0327C27.9483 92.8502 27.2155 94.1411 27.0431 95.604C27.0431 95.6901 27 95.7331 27 95.8192C27 95.9482 27 96.1204 27 96.2494C27 96.2925 27 96.3785 27 96.4216C27.0431 97.8845 27.6466 99.1754 28.5948 100.122C28.7241 100.251 28.8534 100.38 29.0259 100.509C29.8448 101.155 30.8793 101.542 32 101.542C34.6293 101.542 36.7845 99.4335 37 96.7228C37 96.5506 37 96.3785 37 96.2494Z" fill="#FFE4E1" fill-opacity="0.2"/>
<path d="M332 131.492L327.414 127L322.842 131.506L327.428 135.997L332 131.492Z" fill="#F7BD20" fill-opacity="0.5"/>
<path d="M1287.16 671.492L1282.57 667L1278 671.506L1282.59 675.997L1287.16 671.492Z" fill="#F7BD20" fill-opacity="0.5"/>
<path d="M857.006 171.649L856.951 171.595L856.897 171.541C855.761 170.731 854.137 170.839 853.433 171.811C853 172.352 852.892 173 853.108 173.648C853.271 174.081 853.541 174.513 853.92 174.783C855.815 176.242 857.222 178.133 857.926 180.349C858.629 182.51 858.629 184.888 857.872 187.157C857.709 187.643 857.709 188.13 857.872 188.562C858.088 189.21 858.575 189.697 859.225 189.913C860.416 190.291 861.823 189.427 862.256 188.076C863.23 185.05 863.23 181.916 862.31 178.998C861.336 176.08 859.496 173.54 857.006 171.649Z" fill="#FFE4E1" fill-opacity="0.2"/>
<path d="M657.006 681.649L656.951 681.595L656.897 681.541C655.761 680.731 654.137 680.839 653.433 681.811C653 682.352 652.892 683 653.108 683.648C653.271 684.081 653.541 684.513 653.92 684.783C655.815 686.242 657.222 688.133 657.926 690.349C658.629 692.51 658.629 694.888 657.872 697.157C657.709 697.643 657.709 698.13 657.872 698.562C658.088 699.21 658.575 699.697 659.225 699.913C660.416 700.291 661.823 699.427 662.256 698.076C663.23 695.05 663.23 691.916 662.31 688.998C661.336 686.08 659.496 683.54 657.006 681.649Z" fill="#FFE4E1" fill-opacity="0.2"/>
<path d="M389.006 479.649L388.951 479.595L388.897 479.541C387.761 478.731 386.137 478.839 385.433 479.811C385 480.352 384.892 481 385.108 481.648C385.271 482.081 385.541 482.513 385.92 482.783C387.815 484.242 389.222 486.133 389.926 488.349C390.629 490.51 390.629 492.888 389.872 495.157C389.709 495.643 389.709 496.13 389.872 496.562C390.088 497.21 390.575 497.697 391.225 497.913C392.416 498.291 393.823 497.427 394.256 496.076C395.23 493.05 395.23 489.916 394.31 486.998C393.336 484.08 391.496 481.54 389.006 479.649Z" fill="#FFE4E1" fill-opacity="0.2"/>
<path d="M796.656 592.538L795.314 592.907L796.217 593.785L797.373 594.916L798.136 595.655L798.275 595.493L802.393 591.268L802.138 591.014L801.953 591.06L801.676 591.152L796.656 592.538Z" fill="#FFE4E1" fill-opacity="0.2"/>
<path d="M787.357 598.426L787.797 598.865L789.277 600.319L790.018 601.035L791.243 602.213L791.498 601.959L794.436 598.934L795.06 598.334L794.921 598.195L793.695 596.994L792.747 596.094L791.151 594.523L790.711 594.985L789.647 596.071L787.357 598.426Z" fill="#FFE4E1" fill-opacity="0.2"/>
<path d="M782.014 604.383L781.436 604.984L782.476 606L783.772 607.247L784.489 607.962L784.859 608.309L787.565 605.515L788.167 604.891L787.75 604.476L786.686 603.437L786.108 602.882L784.766 601.566L784.489 601.843L783.124 603.252L782.014 604.383Z" fill="#FFE4E1" fill-opacity="0.2"/>
<path d="M779.423 613.389L780.719 612.05L781.783 610.964L781.32 610.549L780.279 609.51L778.845 608.124L778.822 608.147L776 611.057L778.915 613.874V613.897L779.423 613.389Z" fill="#FFE4E1" fill-opacity="0.2"/>
<path d="M805.335 579L800.593 583.866L805.467 588.599L810.209 583.734L805.335 579Z" fill="#FFE4E1" fill-opacity="0.2"/>
<path d="M795.315 592.907L796.657 592.538L801.676 591.152L802.139 591.014L798.021 586.996L793.742 591.383L794.621 592.237L795.315 592.907Z" fill="#FFE4E1" fill-opacity="0.2"/>
<path d="M974.006 716.649L973.951 716.595L973.897 716.541C972.761 715.731 971.137 715.839 970.433 716.811C970 717.352 969.892 718 970.108 718.648C970.271 719.081 970.541 719.513 970.92 719.783C972.815 721.242 974.222 723.133 974.926 725.349C975.629 727.51 975.629 729.888 974.872 732.157C974.709 732.643 974.709 733.13 974.872 733.562C975.088 734.21 975.575 734.697 976.225 734.913C977.416 735.291 978.823 734.427 979.256 733.076C980.23 730.05 980.23 726.916 979.31 723.998C978.336 721.08 976.496 718.54 974.006 716.649Z" fill="#FFE4E1" fill-opacity="0.2"/>
<path d="M203.948 76.3202C201.133 77.8332 198.914 80.0486 197.561 82.8044C196.208 85.5061 195.721 88.5861 196.154 91.7201V91.7742V91.8822C196.424 93.2871 197.615 94.3138 198.86 94.0977C199.51 93.9896 200.105 93.6113 200.376 93.017C200.592 92.5847 200.646 92.0984 200.592 91.6121C200.213 89.2345 200.592 86.911 201.621 84.8577C202.649 82.8044 204.327 81.1293 206.438 79.9946C206.871 79.7785 207.196 79.4002 207.412 78.9679C207.737 78.3736 207.683 77.6711 207.358 77.0767C206.817 76.0501 205.193 75.6718 203.948 76.3202Z" fill="#FFE4E1" fill-opacity="0.2"/>
<path d="M1160.69 139.05C1160.08 139.279 1159.43 139.47 1158.86 139.661C1157.98 139.928 1157.14 140.119 1156.42 140.272C1155.43 140.425 1154.55 140.463 1153.82 140.31C1153.48 140.234 1153.21 140.119 1152.98 139.928C1152.87 139.814 1152.72 139.737 1152.64 139.584L1151 140.845C1151.5 141.494 1152.22 141.952 1153.1 142.143C1153.21 142.181 1153.37 142.181 1153.52 142.219C1154.24 142.334 1155.08 142.296 1156 142.143C1156.84 142.028 1157.71 141.799 1158.67 141.532C1159.77 141.188 1160.92 140.806 1162.14 140.31C1163.86 139.661 1165.65 138.859 1167.48 138.095C1167.9 137.904 1168.32 137.752 1168.74 137.561C1169.43 137.255 1170.11 136.988 1170.8 136.721C1170.91 136.682 1171.07 136.606 1171.18 136.568C1171.87 136.262 1172.59 135.995 1173.28 135.728C1174.35 135.308 1175.38 134.964 1176.37 134.659C1178.31 134.086 1179.99 133.818 1181.18 134.086C1181.71 134.2 1182.09 134.429 1182.36 134.773C1183.5 136.301 1181.71 139.508 1179.15 142.945C1178.31 144.09 1177.4 145.236 1176.48 146.343C1176.03 146.916 1175.57 147.451 1175.15 147.985C1175.11 148.023 1175.07 148.062 1175.03 148.1C1174.5 148.749 1174 149.36 1173.47 150.009C1172.67 150.964 1171.94 151.918 1171.22 152.835C1167.94 157.15 1165.92 160.777 1167.75 163.221C1168.24 163.908 1168.97 164.329 1169.88 164.558C1173.05 165.283 1178.43 162.992 1184.11 160.548C1184.15 160.51 1184.19 160.51 1184.27 160.472C1186.59 159.479 1188.96 158.448 1191.09 157.684C1193.88 156.691 1196.32 156.08 1197.88 156.462C1198.42 156.577 1198.8 156.806 1199.07 157.15C1200.1 158.563 1198.69 161.312 1196.51 164.405C1195.1 166.429 1193.34 168.529 1191.74 170.476C1191.28 171.049 1190.83 171.584 1190.37 172.156C1185.79 177.77 1182.28 182.581 1184.49 185.56C1184.99 186.209 1185.72 186.667 1186.59 186.896C1189.03 187.469 1192.81 186.209 1197.01 184.529C1198.3 183.994 1199.64 183.421 1200.97 182.848C1203.68 181.665 1206.47 180.481 1208.91 179.717C1211.24 178.953 1213.26 178.533 1214.63 178.877C1215.17 178.992 1215.55 179.221 1215.81 179.564C1216.77 180.825 1215.7 183.192 1213.91 185.865C1212.38 188.118 1210.32 190.638 1208.49 192.891C1207 194.724 1205.55 196.442 1204.33 198.084C1203.53 199.153 1202.81 200.184 1202.23 201.177C1201.62 202.17 1201.17 203.125 1200.9 204.003C1200.4 205.53 1200.44 206.867 1201.28 207.974C1201.78 208.662 1202.5 209.082 1203.38 209.311C1204.71 209.616 1206.51 209.387 1208.49 208.814C1208.95 208.7 1209.41 208.547 1209.9 208.394C1209.98 208.356 1210.09 208.318 1210.17 208.318C1211.2 207.974 1212.27 207.554 1213.37 207.134C1214.78 206.561 1216.27 205.95 1217.76 205.301C1220.93 203.965 1224.13 202.552 1226.8 201.788C1227.22 201.674 1227.6 201.559 1227.98 201.483C1229.32 201.177 1230.5 201.063 1231.42 201.292C1231.46 201.292 1231.53 201.33 1231.57 201.33C1232.03 201.445 1232.37 201.674 1232.6 201.979C1233.21 202.819 1232.98 204.118 1232.22 205.683C1231.99 206.18 1231.68 206.752 1231.34 207.287C1231.34 207.287 1231.34 207.325 1231.3 207.325C1229.78 209.845 1227.37 212.747 1225.28 215.306C1224.09 216.719 1222.99 218.093 1221.96 219.43C1221.35 220.232 1220.77 220.995 1220.24 221.759C1219.59 222.714 1219.02 223.592 1218.56 224.432C1218.52 224.508 1218.48 224.547 1218.45 224.623C1217.26 226.914 1216.92 228.9 1218.03 230.389L1218.22 230.618L1218.48 231L1218.87 230.695L1220.16 229.74L1219.71 229.129C1219.25 228.48 1219.29 227.563 1219.67 226.456C1220.01 225.501 1220.62 224.394 1221.38 223.21C1221.88 222.446 1222.45 221.645 1223.06 220.843C1224.32 219.163 1225.73 217.444 1227.07 215.84C1229.13 213.32 1231.11 210.953 1232.56 208.776C1233.29 207.707 1233.86 206.714 1234.28 205.76C1234.62 204.958 1234.89 204.194 1234.96 203.507C1235.08 202.476 1234.93 201.559 1234.32 200.757C1234.32 200.719 1234.28 200.719 1234.28 200.681C1233.78 200.07 1233.1 199.612 1232.22 199.421C1230.58 199.039 1228.29 199.497 1225.73 200.337C1223.63 201.025 1221.35 201.979 1218.94 203.01C1218.56 203.163 1218.22 203.316 1217.84 203.468C1214.82 204.767 1211.77 206.065 1209.18 206.829C1209.18 206.829 1209.18 206.829 1209.14 206.829C1208.6 206.981 1208.11 207.134 1207.61 207.249C1206.77 207.44 1206.05 207.554 1205.36 207.554C1204.94 207.554 1204.52 207.516 1204.18 207.44C1203.64 207.325 1203.26 207.096 1203 206.752C1202.77 206.447 1202.65 206.027 1202.65 205.569C1202.65 204.118 1203.76 202.056 1205.32 199.803C1206.77 197.702 1208.64 195.45 1210.32 193.426C1212.11 191.249 1213.79 189.187 1215.17 187.278C1217.8 183.574 1219.21 180.481 1217.57 178.304C1217.07 177.617 1216.35 177.197 1215.43 176.968C1213.56 176.548 1210.89 177.159 1207.84 178.266C1205.7 179.03 1203.42 180.023 1201.05 181.015C1199.45 181.703 1197.85 182.39 1196.28 183.001C1192.66 184.452 1189.38 185.445 1187.39 185.025C1186.86 184.91 1186.48 184.681 1186.21 184.338C1184.8 182.428 1187.89 177.999 1191.28 173.76C1192.05 172.806 1192.81 171.889 1193.54 171.011C1195.02 169.178 1196.47 167.422 1197.69 165.78C1200.75 161.694 1202.5 158.257 1200.78 155.928C1200.29 155.279 1199.56 154.82 1198.69 154.591C1196.59 154.095 1193.5 154.935 1190.03 156.271C1188.19 156.959 1186.29 157.799 1184.3 158.639C1184 158.753 1183.69 158.906 1183.39 159.021C1178.35 161.159 1173.32 163.221 1170.68 162.61C1170.15 162.496 1169.77 162.267 1169.5 161.923C1167.75 159.594 1172.78 153.484 1176.83 148.596C1177.02 148.367 1177.21 148.138 1177.4 147.871C1178.43 146.611 1179.42 145.427 1180.3 144.243C1180.37 144.167 1180.41 144.09 1180.49 143.976C1181.06 143.25 1181.56 142.525 1182.05 141.837C1182.78 140.768 1183.43 139.737 1183.88 138.783C1184.3 137.904 1184.61 137.064 1184.72 136.301C1184.84 135.613 1184.76 134.964 1184.57 134.391C1184.46 134.086 1184.3 133.78 1184.07 133.475C1183.58 132.826 1182.85 132.367 1181.98 132.138C1181.06 131.909 1179.95 131.986 1178.73 132.215C1178.47 132.253 1178.16 132.329 1177.89 132.406C1176.22 132.787 1174.31 133.475 1172.29 134.277C1171.71 134.506 1171.1 134.735 1170.53 135.002C1169.58 135.384 1168.62 135.804 1167.63 136.224C1167.59 136.224 1167.56 136.262 1167.52 136.262C1166.53 136.682 1165.57 137.102 1164.58 137.522C1164.39 137.599 1164.16 137.675 1163.97 137.79C1162.75 138.248 1161.68 138.668 1160.69 139.05Z" fill="#FFE4E1" fill-opacity="0.2"/>
<path d="M471.977 213C480.832 213 488 205.832 488 196.977C488 188.168 480.832 181 471.977 181C463.168 181 456 188.168 456 196.977C456 205.832 463.168 213 471.977 213ZM471.977 185.31C478.395 185.31 483.643 190.558 483.643 196.977C483.643 203.395 478.395 208.643 471.977 208.643C465.558 208.643 460.31 203.395 460.31 196.977C460.31 190.558 465.558 185.31 471.977 185.31Z" fill="#FFE4E1" fill-opacity="0.2"/>
<path d="M1253.41 549.642L1253 550.015L1253.77 550.905L1255.16 552.478L1255.53 552.913L1258.04 555.791L1258.97 556.867L1259.66 557.654L1261 559.186L1261.92 560.221L1262.21 560.552L1262.46 560.842L1263.02 560.676L1269.13 558.751L1271.04 558.151L1272.93 557.55L1272.68 556.267L1272.45 555.149L1271.71 551.36L1271.31 549.394L1270.98 547.717L1270.88 547.241L1268.84 536.911L1268.66 536L1259.78 543.929L1258.31 545.254L1255.61 547.676L1254.58 548.607L1253.41 549.642ZM1258.23 552.292L1259.62 552.83L1261.52 553.555L1263.6 554.341L1262.37 559.33L1261.44 558.254L1260.65 557.343L1259.88 556.474L1258.56 554.962L1257.67 553.948L1256.55 552.665L1255.18 551.112L1257.42 551.961L1258.23 552.292ZM1263.29 559.413L1263.74 557.55L1264.45 554.673L1264.88 554.838L1266.4 555.418L1267.5 555.832L1269.05 556.432L1271 557.178L1270.34 557.385L1269.2 557.736L1267.87 558.151L1265.98 558.751L1264.51 559.206L1263.58 559.496L1263.24 559.6L1263.29 559.413ZM1269.42 544.508L1269.51 544.943L1269.84 546.62L1270.23 548.586L1270.59 550.325L1270.65 550.677L1271.04 552.706L1271.12 553.182L1271.46 554.859L1271.79 556.515L1270.77 556.122L1269.51 555.646L1267.7 554.962L1264.7 553.803L1265.36 551.133L1265.82 549.311L1266.09 548.193L1266.46 546.703L1268.37 538.981L1269.42 544.508ZM1266.06 544.322L1265.71 545.771L1264.86 549.187L1264.47 550.76L1264.12 552.189L1263.8 553.472L1262.71 553.058L1261.44 552.582L1260.3 552.147L1257.06 550.926L1255.16 550.201L1254.45 549.932L1256.84 547.8L1258.08 546.682L1259.22 545.668L1260.09 544.881L1267.56 538.215L1266.06 544.322Z" fill="#FFE4E1" fill-opacity="0.2"/>
<path d="M1150.65 382.861V380.105H1089.27H1089V382.861H1089.27H1150.65Z" fill="#FFE4E1" fill-opacity="0.2"/>
<path d="M1126.19 374.756V372H1089.27H1089V374.756H1089.27H1126.19Z" fill="#FFE4E1" fill-opacity="0.2"/>
<path d="M1106 391.02V388.21H1089.27H1089V391.02H1089.27H1106Z" fill="#FFE4E1" fill-opacity="0.2"/>
<path d="M1366.98 422C1375.83 422 1383 414.832 1383 405.977C1383 397.168 1375.83 390 1366.98 390C1358.17 390 1351 397.168 1351 405.977C1351 414.832 1358.17 422 1366.98 422ZM1366.98 394.31C1373.4 394.31 1378.64 399.558 1378.64 405.977C1378.64 412.395 1373.4 417.643 1366.98 417.643C1360.56 417.643 1355.31 412.395 1355.31 405.977C1355.31 399.558 1360.56 394.31 1366.98 394.31Z" fill="#FFE4E1" fill-opacity="0.2"/>
<path d="M128.436 700C152.511 700 172 680.511 172 656.436C172 632.489 152.511 613 128.436 613C104.489 613 85 632.489 85 656.436C85 680.511 104.489 700 128.436 700ZM128.436 624.719C145.887 624.719 160.154 638.985 160.154 656.436C160.154 673.887 145.887 688.154 128.436 688.154C110.985 688.154 96.7189 673.887 96.7189 656.436C96.7189 638.985 110.985 624.719 128.436 624.719Z" fill="#FFE4E1" fill-opacity="0.2"/>
</svg>
